<?xml version="1.0" encoding="UTF-8"?>
<svg width="100pt" height="100pt" version="1.1" viewBox="0 0 100 100" xmlns="http://www.w3.org/2000/svg">
 <path d="m41.781 71.555c20.242 5.5273 41.73-10.652 41.422-32.172-1.8164-44.043-64.594-44.043-66.406 0 0.007813 7.375 2.4688 14.535 6.9883 20.359 4.5234 5.8242 10.855 9.9805 17.996 11.812zm8.2188-58.734c0.85156 0.015626 1.5312 0.71094 1.5312 1.5625 0 0.85156-0.67969 1.5469-1.5312 1.5625-7.5977 0.011719-14.723 3.6953-19.125 9.8906-0.50391 0.69531-1.4727 0.85547-2.1719 0.35547-0.69922-0.49609-0.86719-1.4648-0.375-2.168 4.9883-7.0195 13.062-11.191 21.672-11.203z"/>
 <path d="m83.203 78.977v-2.7344c-0.007813-2.5859-2.1016-4.6797-4.6875-4.6875h-11.672c-7.8164 4.0977-16.859 5.207-25.438 3.125-2.8672-0.69531-5.6406-1.7461-8.25-3.125h-11.672c-2.5859 0.007812-4.6797 2.1016-4.6875 4.6875v2.7344z"/>
 <path d="m85.469 82.102h-70.938c-2.5898 0.003907-4.6836 2.1016-4.6875 4.6875v5.2969c-0.003906 0.41797 0.16016 0.81641 0.45312 1.1094 0.29297 0.29297 0.69531 0.45703 1.1094 0.45313h77.188c0.41406 0.003906 0.81641-0.16016 1.1094-0.45313 0.29297-0.29297 0.45703-0.69141 0.45312-1.1094v-5.2969c-0.003906-2.5859-2.0977-4.6836-4.6875-4.6875z"/>
</svg>
