<?xml version="1.0" encoding="UTF-8"?>
<svg width="100pt" height="100pt" version="1.1" viewBox="0 0 100 100" xmlns="http://www.w3.org/2000/svg">
 <path d="m10.508 50.559c0.58594 0.011718 1.0547 0.49609 1.043 1.0859-0.011719 0.58594-0.5 1.0508-1.0859 1.0391l-5.9805-0.14062h0.003906c-0.58594-0.011719-1.0547-0.49609-1.043-1.082 0.011719-0.58594 0.49609-1.0508 1.082-1.0391l5.9805 0.14062zm10.812-28.867c0.40625 0.42578 0.38672 1.0977-0.039062 1.5039-0.42578 0.40234-1.0977 0.38672-1.5039-0.039062l-4.1289-4.3281c-0.40234-0.42188-0.38672-1.0977 0.039062-1.5 0.42578-0.40625 1.0977-0.39062 1.5039 0.035156zm74.191 28.945c0.58594 0.011719 1.0547 0.49609 1.043 1.082-0.011719 0.58984-0.49609 1.0547-1.082 1.043l-5.9805-0.14062c-0.57813-0.023438-1.0273-0.50391-1.0156-1.082 0.011719-0.57812 0.48047-1.0391 1.0586-1.043l5.9805 0.14062zm-13.973-31.883c0.41797-0.39844 1.0781-0.39062 1.4844 0.019532 0.41016 0.40625 0.41797 1.0664 0.023437 1.4883l-4.3203 4.3203v-0.003906c-0.41797 0.41406-1.0898 0.41016-1.5039-0.003906-0.41406-0.41406-0.41406-1.082-0.003906-1.5zm-32.641-12.688c0.019531-0.57812 0.49219-1.0352 1.0664-1.0352 0.57812 0 1.0508 0.45703 1.0664 1.0352v6.1094c-0.015625 0.57812-0.48828 1.0352-1.0664 1.0352-0.57422 0-1.0469-0.45703-1.0664-1.0352zm-10.5 18.695c0.54297-0.23047 1.168 0.023437 1.3945 0.5625 0.23047 0.53906-0.019531 1.1641-0.5625 1.3945-4.8281 2.0664-8.9492 5.5039-11.84 9.8867-2.8945 4.3867-4.4375 9.5234-4.4375 14.777-0.015625 0.57813-0.48828 1.0352-1.0664 1.0352-0.57422 0-1.0469-0.45703-1.0664-1.0352 0.003907-5.6719 1.668-11.215 4.793-15.949 3.125-4.7305 7.5703-8.4414 12.785-10.672zm11.371-2.3242h0.003907c0.57422 0.019531 1.0312 0.49219 1.0312 1.0664 0 0.57812-0.45703 1.0508-1.0312 1.0664-0.96094 0-1.9219 0.050782-2.8789 0.15234-0.94922 0.10156-1.8945 0.25391-2.8281 0.45703l-0.074218 0.011718-0.16797 0.039063c-0.27734 0.0625-0.56641 0.011719-0.80469-0.14062s-0.40625-0.39062-0.46875-0.66797c-0.058593-0.27734-0.007812-0.56641 0.14453-0.80078 0.15234-0.23828 0.39453-0.40625 0.67188-0.46484l0.25-0.058594c2.0234-0.4375 4.0859-0.65625 6.1562-0.66016zm-31.871 72.562h63.055c0.47656-0.003906 0.86328-0.38672 0.86719-0.86328v-5.8281c-0.003906-0.47656-0.39062-0.86328-0.86719-0.86719h-63.055c-0.47656 0.003906-0.85938 0.39062-0.86328 0.86719v5.8281c0.003906 0.47656 0.39062 0.85938 0.86328 0.86328zm56.434-9.6914v-3.0742c0-0.011719-0.003906-0.027344-0.015625-0.039063l-0.011718-0.011718-0.027344-0.007813-49.051 0.003907c-0.015624 0-0.03125 0.007812-0.039062 0.015624-0.011719 0.011719-0.015625 0.027344-0.015625 0.039063v3.0742zm-2.2266-5.2617c7.6992-6.2031 12.477-15.324 13.184-25.188 0.70313-9.8594-2.7188-19.574-9.457-26.809-6.7383-7.2383-16.18-11.348-26.066-11.348s-19.328 4.1094-26.066 11.348c-6.7344 7.2344-10.16 16.949-9.4531 26.809 0.70703 9.8633 5.4805 18.984 13.18 25.188z" fill-rule="evenodd"/>
</svg>
