<?xml version="1.0" encoding="UTF-8"?>
<svg width="100pt" height="100pt" version="1.1" viewBox="0 0 100 100" xmlns="http://www.w3.org/2000/svg">
 <path d="m60.938 45.312c0 4.168-6.25 4.168-6.25 0s6.25-4.168 6.25 0z"/>
 <path d="m45.312 45.312c0 4.168-6.25 4.168-6.25 0s6.25-4.168 6.25 0z"/>
 <path d="m81.883 36.07-13.637-6.0625-9.8281-15.188 6.2148-2.4297v0.003906c0.58594-0.23047 0.97656-0.79297 0.99219-1.4219s-0.35156-1.207-0.92969-1.4648l-14.062-6.25c-0.69922-0.3125-1.5273-0.066406-1.9453 0.58203l-16.934 26.172-13.637 6.0586c-0.67578 0.30078-1.0508 1.0312-0.89453 1.7539 0.15234 0.72266 0.78906 1.2383 1.5273 1.2383h8.3711c-1.9531 1.7148-2.6367 4.4648-1.7188 6.8984 0.91797 2.4297 3.2461 4.0391 5.8477 4.0391v9.375c-0.003906 3.9023 1.2148 7.7109 3.4883 10.883-1.2539 1.8008-1.9258 3.9453-1.9258 6.1445v4.8477h-3.125c-0.86328 0-1.5625 0.69922-1.5625 1.5625h-1.5625c-2.5898 0-4.6875 2.0977-4.6875 4.6875s2.0977 4.6875 4.6875 4.6875h1.5625v1.5625c0 0.52344 0.26562 1.0156 0.70312 1.3047 0.4375 0.28906 0.99219 0.33984 1.4766 0.13281l8.7578-3.7539v3.8789c0 0.41406 0.16406 0.8125 0.45703 1.1055s0.69141 0.45703 1.1055 0.45703h18.75c0.41406 0 0.8125-0.16406 1.1055-0.45703s0.45703-0.69141 0.45703-1.1055v-3.8789l8.7578 3.7539c0.48438 0.20703 1.0391 0.15625 1.4766-0.13281 0.4375-0.28906 0.70312-0.78125 0.70312-1.3047v-1.5625h1.5625v4.6875h3.125v-5.8867c0.99609-0.88672 1.5625-2.1562 1.5625-3.4883s-0.56641-2.6016-1.5625-3.4883v-4.3242h1.5625v-3.125h-1.5625v-1.7617c3.0469-0.78516 5.0352-3.7148 4.6367-6.8359-0.39453-3.125-3.0508-5.4648-6.1992-5.4648s-5.8047 2.3398-6.1992 5.4648c-0.39844 3.1211 1.5898 6.0508 4.6367 6.8359v1.7617h-1.5625v3.125h1.5625v3.125h-1.5625c0-0.41406-0.16406-0.8125-0.45703-1.1055s-0.69141-0.45703-1.1055-0.45703h-3.125v-4.8477c0-2.1992-0.67188-4.3438-1.9258-6.1445 2.2734-3.1719 3.4922-6.9805 3.4883-10.883v-9.375c2.6016 0 4.9297-1.6094 5.8477-4.0391 0.91797-2.4336 0.23438-5.1836-1.7188-6.8984h8.3711c0.73828 0 1.375-0.51562 1.5273-1.2383 0.15625-0.72266-0.21875-1.4531-0.89453-1.7539zm-50.633 10.805c-1.7266 0-3.125-1.3984-3.125-3.125s1.3984-3.125 3.125-3.125zm-3.125 42.188h-1.5625c-0.86328 0-1.5625-0.69922-1.5625-1.5625s0.69922-1.5625 1.5625-1.5625h1.5625zm43.75-20.312c0-1.2656 0.76172-2.4023 1.9297-2.8867 1.168-0.48438 2.5117-0.21484 3.4062 0.67578 0.89062 0.89453 1.1602 2.2383 0.67578 3.4062-0.48438 1.168-1.6211 1.9297-2.8867 1.9297-1.7266-0.003906-3.1211-1.3984-3.125-3.125zm0 17.188h1.5625c0.86328 0 1.5625 0.69922 1.5625 1.5625s-0.69922 1.5625-1.5625 1.5625h-1.5625zm-37.5-39.395c1.5781 1.3125 2.6367 3.1484 2.9883 5.1719-0.59375-0.050782-1.1797-0.14844-1.7578-0.28906l-1.2305-0.30859zm10.352 6.8281c0.75391-0.375 1.6484-0.32031 2.3516 0.14844l0.31641 0.21094-0.003906-0.003907c0.74609 0.5 1.1445 1.3789 1.0273 2.2656-0.12109 0.89062-0.73438 1.6328-1.5859 1.9141-1.7188 0.57422-3.5156 0.86719-5.3242 0.86719-1.4766-0.003907-2.8398-0.77734-3.6055-2.043l-1.1602-1.9375v0.003906c2.7422 0.30469 5.5156-0.19141 7.9844-1.4258zm6.8359 37.254h-3.125v-3.125h3.125zm0-6.25h-3.125v-3.125h3.125zm14.062-25c0 5.582-2.9766 10.742-7.8125 13.531-4.8359 2.793-10.789 2.793-15.625 0-4.8359-2.7891-7.8125-7.9492-7.8125-13.531v-2.4492l0.84766 1.4141c1.332 2.2031 3.7109 3.5508 6.2852 3.5586 2.1445 0 4.2773-0.34375 6.3125-1.0234 0.82422-0.27734 1.5742-0.74609 2.1797-1.3711 0.60547 0.625 1.3555 1.0938 2.1797 1.3711 2.0352 0.67969 4.168 1.0234 6.3125 1.0234 2.5742-0.007813 4.9531-1.3555 6.2852-3.5586l0.84766-1.4141zm-13.016-5.6445 0.31641-0.21094h-0.003906c0.70312-0.46484 1.5977-0.52344 2.3516-0.14453 2.4688 1.2305 5.2422 1.7266 7.9844 1.4219l-1.1602 1.9375c-0.76562 1.2617-2.1289 2.0352-3.6055 2.0391-1.8086 0-3.6055-0.29297-5.3242-0.86328-0.85156-0.28516-1.4648-1.0273-1.5859-1.918-0.11719-0.88672 0.28125-1.7656 1.0273-2.2617zm13.016-2.6133-1.2305 0.30859c-0.57812 0.14453-1.168 0.23828-1.7578 0.28906 0.34766-2.0234 1.4102-3.8594 2.9883-5.1719zm0-8.3281c-3.3242 1.7695-5.6055 5.0234-6.1289 8.7539h-0.003906c-0.97656-0.19531-1.9258-0.51953-2.8203-0.96484-1.7578-0.875-3.8477-0.74609-5.4805 0.33984l-0.31641 0.21094c-0.31641 0.21094-0.60938 0.45703-0.875 0.73047-0.26562-0.27344-0.55859-0.51953-0.875-0.73047l-0.31641-0.21094c-1.6328-1.0859-3.7227-1.2148-5.4805-0.33984-0.89453 0.44531-1.8438 0.76953-2.8203 0.96484-0.52734-3.7305-2.8047-6.9844-6.1328-8.7539v-3.7266h31.25zm3.125 4.0859v-6.25c1.7266 0 3.125 1.3984 3.125 3.125s-1.3984 3.125-3.125 3.125z"/>
</svg>
